<svg width="886" height="103" viewBox="0 0 886 103" fill="none" xmlns="http://www.w3.org/2000/svg">
<g filter="url(#filter0_d_15_16)">
<mask id="path-1-inside-1_15_16" fill="white">
<path fill-rule="evenodd" clip-rule="evenodd" d="M72.0945 0C47.7418 0 28 19.7418 28 44.0945C28 54.1255 31.3495 63.3742 36.9911 70.7831L4.71704 94.8721L46.2001 79.7887C53.471 85.0726 62.4188 88.189 72.0945 88.189H837.906C862.258 88.189 882 68.4472 882 44.0945C882 19.7418 862.258 0 837.906 0H72.0945Z"/>
</mask>
<path fill-rule="evenodd" clip-rule="evenodd" d="M72.0945 0C47.7418 0 28 19.7418 28 44.0945C28 54.1255 31.3495 63.3742 36.9911 70.7831L4.71704 94.8721L46.2001 79.7887C53.471 85.0726 62.4188 88.189 72.0945 88.189H837.906C862.258 88.189 882 68.4472 882 44.0945C882 19.7418 862.258 0 837.906 0H72.0945Z" fill="white"/>
<path d="M36.9911 70.7831L37.5892 71.5845L38.3983 70.9806L37.7867 70.1773L36.9911 70.7831ZM4.71704 94.8721L4.11889 94.0707L5.05876 95.8119L4.71704 94.8721ZM46.2001 79.7887L46.7879 78.9798L46.3579 78.6673L45.8584 78.8489L46.2001 79.7887ZM29 44.0945C29 20.2941 48.294 1 72.0945 1V-1C47.1895 -1 27 19.1895 27 44.0945H29ZM37.7867 70.1773C32.2731 62.9364 29 53.8991 29 44.0945H27C27 54.3519 30.4259 63.8119 36.1955 71.3889L37.7867 70.1773ZM5.31519 95.6735L37.5892 71.5845L36.3929 69.9817L4.11889 94.0707L5.31519 95.6735ZM45.8584 78.8489L4.37533 93.9323L5.05876 95.8119L46.5418 80.7285L45.8584 78.8489ZM72.0945 87.189C62.637 87.189 53.8937 84.1436 46.7879 78.9798L45.6122 80.5977C53.0482 86.0015 62.2006 89.189 72.0945 89.189V87.189ZM837.906 87.189H72.0945V89.189H837.906V87.189ZM881 44.0945C881 67.8949 861.706 87.189 837.906 87.189V89.189C862.811 89.189 883 68.9995 883 44.0945H881ZM837.906 1C861.706 1 881 20.2941 881 44.0945H883C883 19.1895 862.811 -1 837.906 -1V1ZM72.0945 1H837.906V-1H72.0945V1Z" fill="#BCBCBC" mask="url(#path-1-inside-1_15_16)"/>
</g>
<defs>
<filter id="filter0_d_15_16" x="0.717041" y="0" width="885.283" height="102.872" filterUnits="userSpaceOnUse" color-interpolation-filters="sRGB">
<feFlood flood-opacity="0" result="BackgroundImageFix"/>
<feColorMatrix in="SourceAlpha" type="matrix" values="0 0 0 0 0 0 0 0 0 0 0 0 0 0 0 0 0 0 127 0" result="hardAlpha"/>
<feOffset dy="4"/>
<feGaussianBlur stdDeviation="2"/>
<feComposite in2="hardAlpha" operator="out"/>
<feColorMatrix type="matrix" values="0 0 0 0 0 0 0 0 0 0 0 0 0 0 0 0 0 0 0.25 0"/>
<feBlend mode="normal" in2="BackgroundImageFix" result="effect1_dropShadow_15_16"/>
<feBlend mode="normal" in="SourceGraphic" in2="effect1_dropShadow_15_16" result="shape"/>
</filter>
</defs>
</svg>
