<?xml version="1.0" encoding="UTF-8"?>
<svg id="Layer_1" xmlns="http://www.w3.org/2000/svg" viewBox="0 0 800 800">
  <defs>
    <style>
      .cls-1 {
        stroke: #423836;
        stroke-width: 42px;
      }

      .cls-1, .cls-2 {
        fill: #fff;
        stroke-miterlimit: 10;
      }

      .cls-2 {
        stroke: #fff;
        stroke-width: 15px;
      }

      .cls-3 {
        fill: #e05338;
      }
    </style>
  </defs>
  <circle class="cls-3" cx="404.38" cy="409.87" r="349.63"/>
  <path class="cls-2" d="M404.38,162.41c-44.92,0-87.04,11.97-123.35,32.89l-118.48,28.76c-1.71.42-1.86,2.79-.21,3.42l54.74,20.67c-3.07,2.86-5.07,4.86-9.07,7.86l-87.66,56.56c-1.1.68-1.14,2.27-.08,3l44.85,30.93c-5.35,20.23-8.21,41.47-8.21,63.38,0,136.67,110.79,247.47,247.47,247.47s247.47-110.79,247.47-247.47-110.79-247.47-247.47-247.47Z"/>
  <g>
    <path class="cls-1" d="M386.97,515.69l-258.5,82.52c-13.43,4.29-28.42-4.36-34.17-19.71l-52.67-140.79c-6.23-16.64.79-34.57,15.35-39.22l272.53-87c14.56-4.65,30.67,5.9,35.24,23.07l38.64,145.27c4.21,15.84-2.99,31.57-16.43,35.86Z"/>
    <path class="cls-1" d="M736.01,403.74l-258.5,82.52c-13.43,4.29-28.42-4.36-34.17-19.71l-52.67-140.79c-6.23-16.64.79-34.57,15.35-39.22l272.53-87c14.56-4.65,30.67,5.9,35.24,23.07l38.64,145.27c4.21,15.84-2.99,31.57-16.43,35.86Z"/>
  </g>
</svg>