<svg width="437" height="138" viewBox="0 0 437 138" fill="none" xmlns="http://www.w3.org/2000/svg">
<g filter="url(#filter0_d_112_8)">
<mask id="path-1-inside-1_112_8" fill="white">
<path fill-rule="evenodd" clip-rule="evenodd" d="M106.895 0C72.3776 0 44.3954 27.9822 44.3954 62.5C44.3954 73.269 47.119 83.4019 51.915 92.2473L4.5 129.5L60.1276 103.962C71.5771 116.867 88.2865 125 106.895 125H370.5C405.018 125 433 97.0178 433 62.5C433 27.9822 405.018 0 370.5 0H106.895Z"/>
</mask>
<path fill-rule="evenodd" clip-rule="evenodd" d="M106.895 0C72.3776 0 44.3954 27.9822 44.3954 62.5C44.3954 73.269 47.119 83.4019 51.915 92.2473L4.5 129.5L60.1276 103.962C71.5771 116.867 88.2865 125 106.895 125H370.5C405.018 125 433 97.0178 433 62.5C433 27.9822 405.018 0 370.5 0H106.895Z" fill="white"/>
<path d="M51.915 92.2473L52.5328 93.0337L53.1963 92.5124L52.7941 91.7707L51.915 92.2473ZM4.5 129.5L3.8822 128.714L4.91722 130.409L4.5 129.5ZM60.1276 103.962L60.8756 103.298L60.3838 102.744L59.7103 103.053L60.1276 103.962ZM45.3954 62.5C45.3954 28.5345 72.9299 1 106.895 1V-1C71.8253 -1 43.3954 27.4299 43.3954 62.5H45.3954ZM52.7941 91.7707C48.0755 83.0679 45.3954 73.0984 45.3954 62.5H43.3954C43.3954 73.4396 46.1626 83.7358 51.0359 92.724L52.7941 91.7707ZM5.1178 130.286L52.5328 93.0337L51.2972 91.461L3.8822 128.714L5.1178 130.286ZM59.7103 103.053L4.08278 128.591L4.91722 130.409L60.5448 104.871L59.7103 103.053ZM106.895 124C88.5844 124 72.1434 115.999 60.8756 103.298L59.3795 104.626C71.0108 117.736 87.9886 126 106.895 126V124ZM370.5 124H106.895V126H370.5V124ZM432 62.5C432 96.4655 404.466 124 370.5 124V126C405.57 126 434 97.5701 434 62.5H432ZM370.5 1C404.465 1 432 28.5345 432 62.5H434C434 27.4299 405.57 -1 370.5 -1V1ZM106.895 1H370.5V-1H106.895V1Z" fill="#BCBCBC" mask="url(#path-1-inside-1_112_8)"/>
</g>
<defs>
<filter id="filter0_d_112_8" x="0.5" y="0" width="436.5" height="137.5" filterUnits="userSpaceOnUse" color-interpolation-filters="sRGB">
<feFlood flood-opacity="0" result="BackgroundImageFix"/>
<feColorMatrix in="SourceAlpha" type="matrix" values="0 0 0 0 0 0 0 0 0 0 0 0 0 0 0 0 0 0 127 0" result="hardAlpha"/>
<feOffset dy="4"/>
<feGaussianBlur stdDeviation="2"/>
<feComposite in2="hardAlpha" operator="out"/>
<feColorMatrix type="matrix" values="0 0 0 0 0 0 0 0 0 0 0 0 0 0 0 0 0 0 0.25 0"/>
<feBlend mode="normal" in2="BackgroundImageFix" result="effect1_dropShadow_112_8"/>
<feBlend mode="normal" in="SourceGraphic" in2="effect1_dropShadow_112_8" result="shape"/>
</filter>
</defs>
</svg>
