<svg width="459" height="156" viewBox="0 0 459 156" fill="none" xmlns="http://www.w3.org/2000/svg">
<g filter="url(#filter0_d_112_8)">
<mask id="path-1-inside-1_112_8" fill="white">
<path fill-rule="evenodd" clip-rule="evenodd" d="M101.516 23H392.5C427.018 23 455 50.9822 455 85.5C455 120.018 427.018 148 392.5 148H66.8954C32.3776 148 4.39539 120.018 4.39539 85.5C4.39539 50.9822 32.3776 23 66.8954 23H82.3739L111.679 0L101.516 23Z"/>
</mask>
<path fill-rule="evenodd" clip-rule="evenodd" d="M101.516 23H392.5C427.018 23 455 50.9822 455 85.5C455 120.018 427.018 148 392.5 148H66.8954C32.3776 148 4.39539 120.018 4.39539 85.5C4.39539 50.9822 32.3776 23 66.8954 23H82.3739L111.679 0L101.516 23Z" fill="white"/>
<path d="M101.516 23L100.601 22.5958L99.9803 24H101.516V23ZM82.3739 23V24H82.7194L82.9913 23.7866L82.3739 23ZM111.679 0L112.594 0.404192L111.062 -0.786652L111.679 0ZM101.516 24H392.5V22H101.516V24ZM392.5 24C426.466 24 454 51.5345 454 85.5H456C456 50.4299 427.57 22 392.5 22V24ZM454 85.5C454 119.466 426.466 147 392.5 147V149C427.57 149 456 120.57 456 85.5H454ZM392.5 147H66.8954V149H392.5V147ZM66.8954 147C32.9299 147 5.39539 119.466 5.39539 85.5H3.39539C3.39539 120.57 31.8253 149 66.8954 149V147ZM5.39539 85.5C5.39539 51.5345 32.9299 24 66.8954 24V22C31.8253 22 3.39539 50.4299 3.39539 85.5H5.39539ZM66.8954 24H82.3739V22H66.8954V24ZM82.9913 23.7866L112.297 0.786652L111.062 -0.786652L81.7565 22.2133L82.9913 23.7866ZM110.764 -0.404192L100.601 22.5958L102.43 23.4042L112.594 0.404192L110.764 -0.404192Z" fill="#BCBCBC" mask="url(#path-1-inside-1_112_8)"/>
</g>
<defs>
<filter id="filter0_d_112_8" x="0.395386" y="0" width="458.605" height="156" filterUnits="userSpaceOnUse" color-interpolation-filters="sRGB">
<feFlood flood-opacity="0" result="BackgroundImageFix"/>
<feColorMatrix in="SourceAlpha" type="matrix" values="0 0 0 0 0 0 0 0 0 0 0 0 0 0 0 0 0 0 127 0" result="hardAlpha"/>
<feOffset dy="4"/>
<feGaussianBlur stdDeviation="2"/>
<feComposite in2="hardAlpha" operator="out"/>
<feColorMatrix type="matrix" values="0 0 0 0 0 0 0 0 0 0 0 0 0 0 0 0 0 0 0.25 0"/>
<feBlend mode="normal" in2="BackgroundImageFix" result="effect1_dropShadow_112_8"/>
<feBlend mode="normal" in="SourceGraphic" in2="effect1_dropShadow_112_8" result="shape"/>
</filter>
</defs>
</svg>
